<svg width="10" height="10" viewBox="0 0 10 10" fill="none" xmlns="http://www.w3.org/2000/svg">
<path d="M4.99707 9.37109C7.48877 9.37109 9.54541 7.31445 9.54541 4.82715C9.54541 2.33984 7.48438 0.283203 4.99268 0.283203C2.50537 0.283203 0.453125 2.33984 0.453125 4.82715C0.453125 7.31445 2.50977 9.37109 4.99707 9.37109ZM4.99707 5.57861C4.73779 5.57861 4.58838 5.43359 4.57959 5.16992L4.51807 2.97705C4.50928 2.70459 4.70264 2.51562 4.99268 2.51562C5.27393 2.51562 5.48047 2.70898 5.47168 2.98145L5.40137 5.16992C5.39258 5.43799 5.24756 5.57861 4.99707 5.57861ZM4.99707 7.09912C4.69824 7.09912 4.45215 6.88379 4.45215 6.59375C4.45215 6.30371 4.69385 6.08838 4.99707 6.08838C5.2959 6.08838 5.5376 6.30371 5.5376 6.59375C5.5376 6.88818 5.2915 7.09912 4.99707 7.09912Z" fill="#D93025"/>
</svg>
