<svg width="15" height="12" viewBox="0 0 15 12" fill="none" xmlns="http://www.w3.org/2000/svg">
<path d="M9.45751 1.12284e-05C9.31366 -0.000823848 9.17287 0.0449384 9.05332 0.131394C8.93377 0.217849 8.84093 0.34103 8.7868 0.485045C8.73266 0.629059 8.7197 0.7873 8.74959 0.939349C8.77948 1.0914 8.85085 1.23028 8.9545 1.33808L12.5158 5.208H0.727079C-0.24236 5.208 -0.24236 6.77731 0.727079 6.77731H12.5158L8.95358 10.6255C8.21828 11.3578 9.28283 12.5288 9.97973 11.7343L14.7812 6.54607L14.8388 6.48381C14.8388 6.46404 14.858 6.4423 14.8772 6.42155C14.8964 6.4008 14.8964 6.37906 14.9156 6.3583C14.9156 6.33854 14.9358 6.3168 14.9358 6.27529H14.954C14.954 6.25355 14.954 6.2328 14.9742 6.21204C14.9742 6.17054 14.9742 6.14979 14.9934 6.12804V6.04503C15.0095 5.93848 14.9961 5.82916 14.955 5.73077C14.955 5.73077 14.955 5.71002 14.9358 5.68927V5.66753C14.9165 5.64579 14.9165 5.62503 14.8964 5.60428C14.8917 5.57275 14.8783 5.54348 14.858 5.52028C14.858 5.50052 14.8388 5.50052 14.8196 5.47878V5.46L14.8004 5.43925H14.7803L14.762 5.39675L9.97973 0.23027C9.83998 0.0831982 9.65259 0.000928757 9.45751 0.00099939V1.12284e-05Z" fill="black"/>
</svg>
