<svg width="15" height="12" viewBox="0 0 15 12" fill="none" xmlns="http://www.w3.org/2000/svg">
<path d="M5.54249 12C5.68634 12.0008 5.82713 11.9551 5.94668 11.8686C6.06623 11.7822 6.15907 11.659 6.2132 11.515C6.26734 11.3709 6.2803 11.2127 6.25041 11.0607C6.22052 10.9086 6.14914 10.7697 6.0455 10.6619L2.48419 6.792L14.2729 6.792C15.2424 6.792 15.2424 5.22269 14.2729 5.22269L2.48419 5.22269L6.04642 1.37451C6.78173 0.642227 5.71717 -0.528828 5.02028 0.265711L0.218811 5.45393L0.161193 5.51619C0.161193 5.53596 0.141987 5.5577 0.122781 5.57845C0.103576 5.5992 0.103576 5.62094 0.0843702 5.6417C0.0843702 5.66146 0.0642486 5.6832 0.0642486 5.72471L0.0459591 5.72471C0.0459591 5.74645 0.0459572 5.7672 0.0258375 5.78796C0.0258375 5.82946 0.0258375 5.85021 0.00663143 5.87196L0.00663143 5.95497C-0.00946851 6.06152 0.00389341 6.17084 0.0450425 6.26922C0.0450425 6.26922 0.0450425 6.28998 0.0642486 6.31073L0.0642486 6.33247C0.0834546 6.35421 0.0834556 6.37497 0.103576 6.39572C0.108286 6.42725 0.121671 6.45652 0.141987 6.47972C0.141987 6.49948 0.161193 6.49948 0.180399 6.52122L0.180399 6.54L0.199605 6.56075L0.219724 6.56075L0.238017 6.60325L5.02027 11.7697C5.16002 11.9168 5.34741 11.9991 5.54249 11.999L5.54249 12Z" fill="black"/>
</svg>
