<svg width="16" height="16" viewBox="0 0 16 16" fill="none" xmlns="http://www.w3.org/2000/svg">
<g clip-path="url(#clip0_587_14897)">
<path d="M5.97878 13.7363C6.12741 13.7371 6.27286 13.6934 6.39638 13.6107C6.5199 13.528 6.61581 13.4103 6.67174 13.2726C6.72768 13.1349 6.74107 12.9835 6.71018 12.8382C6.6793 12.6928 6.60556 12.56 6.49848 12.4569L2.81904 8.75669L14.9988 8.75669C16.0004 8.75669 16.0004 7.25619 14.9988 7.25619L2.81904 7.25619L6.49942 3.57675C7.25912 2.87657 6.15926 1.75687 5.43925 2.51657L0.478518 7.47729L0.41899 7.53682C0.41899 7.55572 0.399147 7.57651 0.379304 7.59635C0.35946 7.61619 0.359461 7.63698 0.339618 7.65682C0.339618 7.67572 0.318829 7.69651 0.318829 7.7362L0.299932 7.7362C0.299932 7.75698 0.299931 7.77683 0.279144 7.79667C0.279144 7.83636 0.279144 7.8562 0.259301 7.87699L0.259301 7.95636C0.242667 8.05824 0.256471 8.16277 0.298986 8.25684C0.298986 8.25684 0.298986 8.27668 0.318829 8.29652L0.318829 8.31731C0.338672 8.3381 0.338673 8.35794 0.35946 8.37778C0.364328 8.40793 0.378156 8.43592 0.399147 8.4581C0.399147 8.477 0.41899 8.477 0.438832 8.49779L0.438832 8.51574L0.458675 8.53558L0.479462 8.53558L0.49836 8.57621L5.43925 13.5162C5.58363 13.6568 5.77724 13.7354 5.97878 13.7354L5.97878 13.7363Z" fill="#959B9D"/>
</g>
<defs>
<clipPath id="clip0_587_14897">
<rect width="16" height="16" fill="white" transform="translate(16 16) rotate(-180)"/>
</clipPath>
</defs>
</svg>
